<svg width="32" height="32" viewBox="0 0 32 32" fill="none" xmlns="http://www.w3.org/2000/svg">
<path d="M19.3485 30.3822L19.3531 20.0845C19.4096 19.6914 19.7287 19.336 20.1416 19.2616L30.4629 19.273C30.857 19.3296 31.1761 18.9742 31.2514 18.4501L31.2728 12.7021C31.3292 12.309 30.9728 11.9903 30.4474 11.9148L20.126 11.9033C19.732 11.8467 19.3756 11.528 19.3007 11.116L19.3052 0.818312C19.3617 0.425188 19.0053 0.106497 18.4799 0.031021L12.7187 0.00591607C12.3246 -0.0506907 12.0054 0.304691 11.9301 0.828856L11.9257 11.1266C11.8692 11.5197 11.55 11.8751 11.1371 11.9495L0.815747 11.9381C0.421684 11.8815 0.102504 12.2369 0.0272086 12.761L0.00587356 18.509C-0.0505983 18.9021 0.305833 19.2208 0.831251 19.2963L11.1526 19.3078C11.5467 19.3644 11.9031 19.6831 11.978 20.095L11.9734 30.3928C11.9169 30.7859 12.2734 31.1046 12.7988 31.1801L18.56 31.2052C18.9728 31.1308 19.292 30.7754 19.3485 30.3822Z" fill="#FDD08D"/>
</svg>
